<svg width="167" height="50" viewBox="0 0 167 50" fill="none" xmlns="http://www.w3.org/2000/svg">
<path d="M167 0H0V50H167V0Z" fill="#F16D7F"/>
<path d="M33.739 26.535C33.739 27.095 33.669 27.5967 33.529 28.04C33.3937 28.4833 33.1907 28.859 32.92 29.167C32.654 29.4703 32.325 29.7037 31.933 29.867C31.541 30.0303 31.0907 30.112 30.582 30.112C30.12 30.112 29.6487 30.0467 29.168 29.916C29.1773 29.7807 29.189 29.6477 29.203 29.517C29.217 29.3817 29.2287 29.2487 29.238 29.118C29.2473 29.0387 29.2753 28.9757 29.322 28.929C29.3733 28.8777 29.4503 28.852 29.553 28.852C29.637 28.852 29.7467 28.873 29.882 28.915C30.022 28.957 30.2087 28.978 30.442 28.978C30.75 28.978 31.0253 28.9313 31.268 28.838C31.5107 28.7447 31.7137 28.6 31.877 28.404C32.0403 28.208 32.164 27.9583 32.248 27.655C32.3367 27.347 32.381 26.983 32.381 26.563V19.969H33.739V26.535ZM45.4689 24.988C45.4689 25.7393 45.3499 26.43 45.1119 27.06C44.8739 27.6853 44.5379 28.2243 44.1039 28.677C43.6699 29.1297 43.1473 29.482 42.5359 29.734C41.9293 29.9813 41.2573 30.105 40.5199 30.105C39.7826 30.105 39.1106 29.9813 38.5039 29.734C37.8973 29.482 37.3769 29.1297 36.9429 28.677C36.5089 28.2243 36.1729 27.6853 35.9349 27.06C35.6969 26.43 35.5779 25.7393 35.5779 24.988C35.5779 24.2367 35.6969 23.5483 35.9349 22.923C36.1729 22.293 36.5089 21.7517 36.9429 21.299C37.3769 20.8417 37.8973 20.487 38.5039 20.235C39.1106 19.983 39.7826 19.857 40.5199 19.857C41.2573 19.857 41.9293 19.983 42.5359 20.235C43.1473 20.487 43.6699 20.8417 44.1039 21.299C44.5379 21.7517 44.8739 22.293 45.1119 22.923C45.3499 23.5483 45.4689 24.2367 45.4689 24.988ZM44.0759 24.988C44.0759 24.372 43.9919 23.819 43.8239 23.329C43.6559 22.839 43.4179 22.426 43.1099 22.09C42.8019 21.7493 42.4286 21.488 41.9899 21.306C41.5513 21.124 41.0613 21.033 40.5199 21.033C39.9833 21.033 39.4956 21.124 39.0569 21.306C38.6183 21.488 38.2426 21.7493 37.9299 22.09C37.6219 22.426 37.3839 22.839 37.2159 23.329C37.0479 23.819 36.9639 24.372 36.9639 24.988C36.9639 25.604 37.0479 26.157 37.2159 26.647C37.3839 27.1323 37.6219 27.5453 37.9299 27.886C38.2426 28.222 38.6183 28.481 39.0569 28.663C39.4956 28.8403 39.9833 28.929 40.5199 28.929C41.0613 28.929 41.5513 28.8403 41.9899 28.663C42.4286 28.481 42.8019 28.222 43.1099 27.886C43.4179 27.5453 43.6559 27.1323 43.8239 26.647C43.9919 26.157 44.0759 25.604 44.0759 24.988ZM48.7699 30H47.4119V19.969H48.7699V30ZM59.4627 19.969V30H58.7837C58.6764 30 58.5854 29.9813 58.5107 29.944C58.4407 29.9067 58.3707 29.8437 58.3007 29.755L52.4977 22.195C52.507 22.3117 52.514 22.426 52.5187 22.538C52.5234 22.65 52.5257 22.755 52.5257 22.853V30H51.3357V19.969H52.0357C52.0964 19.969 52.1477 19.9737 52.1897 19.983C52.2317 19.9877 52.269 19.9993 52.3017 20.018C52.3344 20.032 52.367 20.0553 52.3997 20.088C52.4324 20.116 52.4674 20.1533 52.5047 20.2L58.3077 27.753C58.2984 27.6317 58.289 27.515 58.2797 27.403C58.275 27.2863 58.2727 27.1767 58.2727 27.074V19.969H59.4627ZM73.7361 19.969V30H73.0571C72.9498 30 72.8588 29.9813 72.7841 29.944C72.7141 29.9067 72.6441 29.8437 72.5741 29.755L66.7711 22.195C66.7805 22.3117 66.7875 22.426 66.7921 22.538C66.7968 22.65 66.7991 22.755 66.7991 22.853V30H65.6091V19.969H66.3091C66.3698 19.969 66.4211 19.9737 66.4631 19.983C66.5051 19.9877 66.5425 19.9993 66.5751 20.018C66.6078 20.032 66.6405 20.0553 66.6731 20.088C66.7058 20.116 66.7408 20.1533 66.7781 20.2L72.5811 27.753C72.5718 27.6317 72.5625 27.515 72.5531 27.403C72.5485 27.2863 72.5461 27.1767 72.5461 27.074V19.969H73.7361ZM85.5685 24.988C85.5685 25.7393 85.4495 26.43 85.2115 27.06C84.9735 27.6853 84.6375 28.2243 84.2035 28.677C83.7695 29.1297 83.2469 29.482 82.6355 29.734C82.0289 29.9813 81.3569 30.105 80.6195 30.105C79.8822 30.105 79.2102 29.9813 78.6035 29.734C77.9969 29.482 77.4765 29.1297 77.0425 28.677C76.6085 28.2243 76.2725 27.6853 76.0345 27.06C75.7965 26.43 75.6775 25.7393 75.6775 24.988C75.6775 24.2367 75.7965 23.5483 76.0345 22.923C76.2725 22.293 76.6085 21.7517 77.0425 21.299C77.4765 20.8417 77.9969 20.487 78.6035 20.235C79.2102 19.983 79.8822 19.857 80.6195 19.857C81.3569 19.857 82.0289 19.983 82.6355 20.235C83.2469 20.487 83.7695 20.8417 84.2035 21.299C84.6375 21.7517 84.9735 22.293 85.2115 22.923C85.4495 23.5483 85.5685 24.2367 85.5685 24.988ZM84.1755 24.988C84.1755 24.372 84.0915 23.819 83.9235 23.329C83.7555 22.839 83.5175 22.426 83.2095 22.09C82.9015 21.7493 82.5282 21.488 82.0895 21.306C81.6509 21.124 81.1609 21.033 80.6195 21.033C80.0829 21.033 79.5952 21.124 79.1565 21.306C78.7179 21.488 78.3422 21.7493 78.0295 22.09C77.7215 22.426 77.4835 22.839 77.3155 23.329C77.1475 23.819 77.0635 24.372 77.0635 24.988C77.0635 25.604 77.1475 26.157 77.3155 26.647C77.4835 27.1323 77.7215 27.5453 78.0295 27.886C78.3422 28.222 78.7179 28.481 79.1565 28.663C79.5952 28.8403 80.0829 28.929 80.6195 28.929C81.1609 28.929 81.6509 28.8403 82.0895 28.663C82.5282 28.481 82.9015 28.222 83.2095 27.886C83.5175 27.5453 83.7555 27.1323 83.9235 26.647C84.0915 26.157 84.1755 25.604 84.1755 24.988ZM100.36 19.969L97.2311 30H96.0131L93.4721 22.349C93.4487 22.2743 93.4254 22.195 93.4021 22.111C93.3834 22.027 93.3624 21.9383 93.3391 21.845C93.3157 21.9383 93.2924 22.027 93.2691 22.111C93.2457 22.195 93.2224 22.2743 93.1991 22.349L90.6441 30H89.4261L86.2971 19.969H87.4241C87.5454 19.969 87.6457 19.9993 87.7251 20.06C87.8091 20.1207 87.8627 20.1977 87.8861 20.291L89.9581 27.263C89.9907 27.389 90.0211 27.5243 90.0491 27.669C90.0817 27.8137 90.1121 27.9677 90.1401 28.131C90.1727 27.9677 90.2054 27.8137 90.2381 27.669C90.2754 27.5197 90.3151 27.3843 90.3571 27.263L92.7161 20.291C92.7441 20.2117 92.7977 20.1393 92.8771 20.074C92.9611 20.004 93.0614 19.969 93.1781 19.969H93.5701C93.6914 19.969 93.7894 19.9993 93.8641 20.06C93.9387 20.1207 93.9947 20.1977 94.0321 20.291L96.3841 27.263C96.4261 27.3843 96.4634 27.515 96.4961 27.655C96.5334 27.795 96.5684 27.942 96.6011 28.096C96.6244 27.942 96.6501 27.795 96.6781 27.655C96.7061 27.515 96.7364 27.3843 96.7691 27.263L98.8481 20.291C98.8714 20.207 98.9227 20.1323 99.0021 20.067C99.0861 20.0017 99.1864 19.969 99.3031 19.969H100.36Z" fill="white"/>
<path fill-rule="evenodd" clip-rule="evenodd" d="M132.54 20.2081C132.606 20.1421 132.684 20.0898 132.77 20.0541C132.856 20.0184 132.948 20 133.041 20C133.135 20 133.227 20.0184 133.313 20.0541C133.399 20.0898 133.477 20.1421 133.543 20.2081L137.793 24.458C137.859 24.5238 137.911 24.602 137.947 24.688C137.983 24.7741 138.001 24.8663 138.001 24.9595C138.001 25.0527 137.983 25.1449 137.947 25.231C137.911 25.317 137.859 25.3952 137.793 25.461L133.543 29.7109C133.41 29.8439 133.23 29.9186 133.041 29.9186C132.853 29.9186 132.673 29.8439 132.54 29.7109C132.407 29.5779 132.332 29.3975 132.332 29.2094C132.332 29.0213 132.407 28.8409 132.54 28.7079L136.29 24.9595L132.54 21.2111C132.474 21.1453 132.422 21.0671 132.386 20.9811C132.35 20.895 132.332 20.8028 132.332 20.7096C132.332 20.6164 132.35 20.5242 132.386 20.4381C132.422 20.3521 132.474 20.2739 132.54 20.2081Z" fill="white"/>
<path fill-rule="evenodd" clip-rule="evenodd" d="M121 24.9595C121 24.7716 121.075 24.5915 121.207 24.4586C121.34 24.3258 121.52 24.2512 121.708 24.2512H136.583C136.771 24.2512 136.951 24.3258 137.084 24.4586C137.217 24.5915 137.291 24.7716 137.291 24.9595C137.291 25.1473 137.217 25.3275 137.084 25.4603C136.951 25.5932 136.771 25.6678 136.583 25.6678H121.708C121.52 25.6678 121.34 25.5932 121.207 25.4603C121.075 25.3275 121 25.1473 121 24.9595Z" fill="white"/>
</svg>
